<svg version="1.1" id="Layer_1" xmlns="http://www.w3.org/2000/svg" xmlns:xlink="http://www.w3.org/1999/xlink" x="0px" y="0px"
	 width="100%" viewBox="0 0 198 115" enable-background="new 0 0 198 115" xml:space="preserve">
<path fill="#000000" opacity="1.000000" stroke="none" 
	d="
M199.000000,74.000000 
	C199.000000,87.970497 199.000000,101.940994 199.000000,116.000000 
	C143.979141,116.000000 88.958229,116.000000 33.137955,115.766502 
	C33.562569,114.184425 34.665756,112.695221 36.036667,111.517708 
	C38.576862,109.335861 38.681118,107.656525 35.537231,105.979637 
	C33.293137,104.782684 31.204344,103.294563 28.823992,101.796501 
	C36.527702,97.008919 42.008755,91.389877 44.166733,82.773109 
	C47.168148,70.788536 50.696850,58.936024 53.998844,47.026703 
	C56.997887,36.210037 60.019115,25.399429 62.981277,14.572666 
	C64.035103,10.720922 65.749893,8.521539 70.452919,8.867882 
	C77.398918,9.379405 84.412354,8.901317 91.393646,9.030219 
	C97.279526,9.138896 100.037949,4.981804 103.000000,1.000000 
	C112.354225,1.000000 121.708458,1.000000 131.832764,1.309554 
	C125.961258,4.271195 120.800339,8.823965 115.600906,13.667610 
	C107.053085,21.630505 104.530640,43.065647 108.921471,53.871151 
	C112.859146,52.431599 116.063385,48.062214 115.591721,45.080154 
	C114.209694,36.342300 114.991219,27.758295 117.298424,19.222645 
	C118.547226,14.602614 121.273308,12.074809 125.846794,10.922200 
	C136.759064,8.172085 147.678024,8.588382 158.850021,10.413557 
	C157.893402,13.687613 156.918182,16.932611 155.997131,20.192909 
	C150.326965,40.263561 144.779114,60.369812 138.934708,80.389519 
	C137.342545,85.843407 135.215988,91.051590 129.108429,93.649330 
	C126.138588,94.912514 123.890625,97.872910 120.768791,100.530754 
	C124.204185,101.125923 126.718697,101.911743 129.241425,101.939133 
	C141.396835,102.071121 153.554474,102.004616 165.711288,101.987747 
	C166.700546,101.986382 167.869095,102.143089 168.651749,101.696304 
	C180.134537,95.141060 192.381775,89.386688 197.065491,75.433464 
	C197.274933,74.809494 198.335739,74.471298 199.000000,74.000000 
z"/>
<path fill="#000000" opacity="1.000000" stroke="none" 
	d="
M28.000000,116.000000 
	C19.044474,116.000000 10.088946,116.000000 1.000000,116.000000 
	C1.000000,95.645943 1.000000,75.291634 1.326855,54.191269 
	C3.105788,54.606915 4.557865,55.768608 6.009944,56.930298 
	C7.527689,54.315735 10.566249,51.525177 10.287735,49.118481 
	C9.320365,40.759224 9.223325,32.515171 11.350080,24.442310 
	C14.596622,12.118906 15.605842,11.492887 28.136990,9.983490 
	C28.467138,9.943723 28.799688,9.917158 29.131914,9.902340 
	C38.803101,9.470983 48.474384,9.041907 58.550804,8.594476 
	C57.064571,11.611959 55.640095,13.648584 55.014046,15.906582 
	C48.271290,40.226105 41.858311,64.639908 34.803291,88.867226 
	C33.620007,92.930695 30.456903,98.316887 27.050179,99.380096 
	C22.170341,100.903053 19.917849,104.033768 16.453131,107.428566 
	C18.294321,108.462067 19.804920,109.083832 21.043282,110.053337 
	C23.443142,111.932152 25.689837,114.006615 28.000000,116.000000 
z"/>
<path fill="#5584AC" opacity="1.000000" stroke="none" 
	d="
M199.000000,73.531731 
	C198.335739,74.471298 197.274933,74.809494 197.065491,75.433464 
	C192.381775,89.386688 180.134537,95.141060 168.651749,101.696304 
	C167.869095,102.143089 166.700546,101.986382 165.711288,101.987747 
	C153.554474,102.004616 141.396835,102.071121 129.241425,101.939133 
	C126.718697,101.911743 124.204185,101.125923 120.768791,100.530754 
	C123.890625,97.872910 126.138588,94.912514 129.108429,93.649330 
	C135.215988,91.051590 137.342545,85.843407 138.934708,80.389519 
	C144.779114,60.369812 150.326965,40.263561 155.997131,20.192909 
	C156.918182,16.932611 157.893402,13.687613 158.850021,10.413557 
	C147.678024,8.588382 136.759064,8.172085 125.846794,10.922200 
	C121.273308,12.074809 118.547226,14.602614 117.298424,19.222645 
	C114.991219,27.758295 114.209694,36.342300 115.591721,45.080154 
	C116.063385,48.062214 112.859146,52.431599 108.921471,53.871151 
	C104.530640,43.065647 107.053085,21.630505 115.600906,13.667610 
	C120.800339,8.823965 125.961258,4.271195 132.301422,1.309554 
	C144.354233,1.000000 156.708450,1.000000 169.238846,1.328393 
	C168.997665,4.911664 168.580322,8.166543 168.139542,11.604221 
	C172.368729,9.070989 176.337219,6.522883 180.467117,4.270794 
	C184.204803,2.232579 188.385025,1.884389 191.371857,5.148485 
	C194.233139,8.275365 193.612885,12.257814 191.055161,15.559011 
	C188.903107,18.336597 186.625870,21.095015 184.007202,23.413698 
	C180.687973,26.352678 176.967407,28.838364 173.473740,31.478849 
	C184.007355,34.873585 192.646088,40.021255 196.164795,51.227608 
	C196.609024,52.642334 198.031021,53.750042 199.000000,55.000000 
	C199.000000,61.021152 199.000000,67.042305 199.000000,73.531731 
M159.084641,40.807911 
	C158.046371,44.401974 156.965057,47.984253 155.977356,51.592155 
	C151.803238,66.839264 149.864120,83.132805 135.761780,94.216705 
	C146.703842,95.232712 157.407410,96.256020 168.022995,95.674080 
	C175.120850,95.284988 182.473648,93.002853 185.862427,85.472389 
	C187.219376,82.457031 187.399643,78.918617 188.166992,75.630302 
	C190.502747,65.620987 188.551086,56.461098 182.583328,48.178383 
	C177.240265,40.762665 166.081604,36.948738 159.084641,40.807911 
M171.533432,12.976229 
	C162.882111,17.244787 164.824646,26.334745 161.524826,33.816078 
	C166.177856,31.466324 170.188416,29.695263 173.937134,27.480970 
	C178.233002,24.943504 182.309280,21.869781 183.066681,16.495699 
	C183.338959,14.563882 182.860260,11.845347 181.612305,10.601199 
	C180.658752,9.650522 177.909332,10.214380 176.043167,10.560146 
	C174.647766,10.818691 173.386948,11.803611 171.533432,12.976229 
z"/>
<path fill="#5584AC" opacity="1.000000" stroke="none" 
	d="
M28.416666,116.000000 
	C25.689837,114.006615 23.443142,111.932152 21.043282,110.053337 
	C19.804920,109.083832 18.294321,108.462067 16.453131,107.428566 
	C19.917849,104.033768 22.170341,100.903053 27.050179,99.380096 
	C30.456903,98.316887 33.620007,92.930695 34.803291,88.867226 
	C41.858311,64.639908 48.271290,40.226105 55.014046,15.906582 
	C55.640095,13.648584 57.064571,11.611959 58.550804,8.594476 
	C48.474384,9.041907 38.803101,9.470983 29.131914,9.902340 
	C28.799688,9.917158 28.467138,9.943723 28.136990,9.983490 
	C15.605842,11.492887 14.596622,12.118906 11.350080,24.442310 
	C9.223325,32.515171 9.320365,40.759224 10.287735,49.118481 
	C10.566249,51.525177 7.527689,54.315735 6.009944,56.930298 
	C4.557865,55.768608 3.105788,54.606915 1.326855,53.722610 
	C1.000000,46.979053 1.000000,39.958103 1.350272,32.706528 
	C1.834017,32.378094 2.060786,32.300980 2.087726,32.179539 
	C5.044540,18.850660 12.849915,9.099357 24.275314,1.990656 
	C24.357273,1.939663 24.099266,1.342264 24.000000,1.000000 
	C50.020893,1.000000 76.041786,1.000000 102.531342,1.000000 
	C100.037949,4.981804 97.279526,9.138896 91.393646,9.030219 
	C84.412354,8.901317 77.398918,9.379405 70.452919,8.867882 
	C65.749893,8.521539 64.035103,10.720922 62.981277,14.572666 
	C60.019115,25.399429 56.997887,36.210037 53.998844,47.026703 
	C50.696850,58.936024 47.168148,70.788536 44.166733,82.773109 
	C42.008755,91.389877 36.527702,97.008919 28.823992,101.796501 
	C31.204344,103.294563 33.293137,104.782684 35.537231,105.979637 
	C38.681118,107.656525 38.576862,109.335861 36.036667,111.517708 
	C34.665756,112.695221 33.562569,114.184425 32.669296,115.766502 
	C31.611111,116.000000 30.222221,116.000000 28.416666,116.000000 
z"/>
<path fill="#000000" opacity="1.000000" stroke="none" 
	d="
M199.000000,54.531342 
	C198.031021,53.750042 196.609024,52.642334 196.164795,51.227608 
	C192.646088,40.021255 184.007355,34.873585 173.473740,31.478849 
	C176.967407,28.838364 180.687973,26.352678 184.007202,23.413698 
	C186.625870,21.095015 188.903107,18.336597 191.055161,15.559011 
	C193.612885,12.257814 194.233139,8.275365 191.371857,5.148485 
	C188.385025,1.884389 184.204803,2.232579 180.467117,4.270794 
	C176.337219,6.522883 172.368729,9.070989 168.139542,11.604221 
	C168.580322,8.166543 168.997665,4.911664 169.707504,1.328393 
	C179.615417,1.000000 189.230850,1.000000 199.000000,1.000000 
	C199.000000,18.687302 199.000000,36.374992 199.000000,54.531342 
z"/>
<path fill="#000000" opacity="1.000000" stroke="none" 
	d="
M23.531263,1.000000 
	C24.099266,1.342264 24.357273,1.939663 24.275314,1.990656 
	C12.849915,9.099357 5.044540,18.850660 2.087726,32.179539 
	C2.060786,32.300980 1.834017,32.378094 1.350272,32.237953 
	C1.000000,21.751162 1.000000,11.502324 1.000000,1.000000 
	C8.352242,1.000000 15.707384,1.000000 23.531263,1.000000 
z"/>
<path fill="#000000" opacity="1.000000" stroke="none" 
	d="
M159.264725,40.458885 
	C166.081604,36.948738 177.240265,40.762665 182.583328,48.178383 
	C188.551086,56.461098 190.502747,65.620987 188.166992,75.630302 
	C187.399643,78.918617 187.219376,82.457031 185.862427,85.472389 
	C182.473648,93.002853 175.120850,95.284988 168.022995,95.674080 
	C157.407410,96.256020 146.703842,95.232712 135.761780,94.216705 
	C149.864120,83.132805 151.803238,66.839264 155.977356,51.592155 
	C156.965057,47.984253 158.046371,44.401974 159.264725,40.458885 
z"/>
<path fill="#000000" opacity="1.000000" stroke="none" 
	d="
M171.799805,12.720658 
	C173.386948,11.803611 174.647766,10.818691 176.043167,10.560146 
	C177.909332,10.214380 180.658752,9.650522 181.612305,10.601199 
	C182.860260,11.845347 183.338959,14.563882 183.066681,16.495699 
	C182.309280,21.869781 178.233002,24.943504 173.937134,27.480970 
	C170.188416,29.695263 166.177856,31.466324 161.524826,33.816078 
	C164.824646,26.334745 162.882111,17.244787 171.799805,12.720658 
z"/>
</svg>